<?xml version="1.0" encoding="UTF-8"?>
<svg width="1440px" height="912px" viewBox="0 0 1440 912" version="1.1" xmlns="http://www.w3.org/2000/svg" xmlns:xlink="http://www.w3.org/1999/xlink">
    <!-- Generator: Sketch 56.3 (81716) - https://sketch.com -->
    <title>Artboard</title>
    <desc>Created with Sketch.</desc>
    <g id="Artboard" stroke="none" stroke-width="1" fill="none" fill-rule="evenodd">
        <path d="M0,813.737477 C74.3329481,849.26923 161.639546,873.872097 261.919793,887.546079 C362.20004,901.22006 480.823585,883.408677 617.790427,834.11193 C708.741268,800.853173 765.686934,758.410299 928.393273,736.322394 C1071.76326,714.172851 1242.29883,733.061494 1440,792.988322 L1440,483 L0,483 L0,813.737477 Z" id="Path" fill="#1C81E1" transform="translate(720.000000, 687.500000) scale(-1, 1) translate(-720.000000, -687.500000) "></path>
        <path d="M0,404.675356 C74.3329481,440.235313 161.639546,464.857708 261.919793,478.542544 C362.20004,492.227379 480.823585,474.401858 617.790427,425.065981 C708.741268,391.780825 765.686934,349.304262 928.393273,327.198825 C1071.76326,305.031701 1242.29883,323.935336 1440,383.909731 L1440,21 L730.125,21 L0,21 L0,404.675356 Z" id="Path-Copy" fill="#1C81E1" transform="translate(720.000000, 252.000000) scale(1, -1) translate(-720.000000, -252.000000) "></path>
    </g>
</svg>